<svg width="27" height="30" viewBox="0 0 27 30" fill="none" xmlns="http://www.w3.org/2000/svg">
<path d="M3.26248 13.2627H1.63123V14.8939H3.26248V13.2627Z" fill="white"/>
<path d="M1.63125 6.7373H0V13.2623H1.63125V6.7373Z" fill="white"/>
<path d="M25.1 13.2627H23.2625V14.8939H25.1V13.2627Z" fill="white"/>
<path d="M26.9375 6.7373H25.1V13.2623H26.9375V6.7373Z" fill="white"/>
<path d="M20 13.2625V14.9H23.2625V16.7375H18.3687V18.1625H16.7312V20H14.9V26.7375H18.3687V30H8.16248V26.7375H11.8375V20H9.99998V18.1625H8.16248V16.7375H3.26248V14.9H6.73123V13.2625H5.09998V6.7375H1.63123V4.9H5.09998V1.63125H3.26248V0H23.2625V1.63125H21.8375V4.9H25.1V6.7375H21.8375V13.2625H20Z" fill="white"/>
</svg>
